# xmcd
#
# Track frame offsets:
#	150
#	12432
#	24921
#	40369
#	54889
#
# Disc length: 938 seconds
#
# Revision: 1
# Processed by: cddbd v1.5.2PL0 Copyright (c) Steve Scherf et al.
# Submitted via: audiograbber 1.83.01
#
DISCID=3103a805
DTITLE=Vissia Sisters - bend in the road
DYEAR=2007
DGENRE=Country
TTITLE0=Blue Sky
TTITLE1=Little Bo-Peep
TTITLE2=Ridem' Cowboy
TTITLE3=Alone
TTITLE4=Out On A Limb
EXTD=www.vissiasisters.com\nAlberta Girls :-}
EXTT0=
EXTT1=
EXTT2=
EXTT3=
EXTT4=
PLAYORDER=
